# xmcd
#
# Track frame offsets:
# 150
# 5553
# 20030
# 36202
# 52169
# 64878
# 80762
# 97682
# 112812
# 126178
# 142232
# 156293
# 171799
# 187294
# 202329
# 220317
# 233949
# 248722
# 263241
# 277277
# 293751
# 312719
# 328819
#
# Disc length: 4641 seconds
#
#
# Revision: 0
# Processed by: cddbd v1.5.2PL0 Copyright (c) Steve Scherf et al.
# Submitted via: FreeRIP 2.96 
#
DISCID=75121f17
DTITLE=Cuiabano Lima - Arena Mix
DYEAR=2011
DGENRE=Country
TTITLE0=Abertura
TTITLE1=Pra que entender
TTITLE2=Balada
TTITLE3=Romance
TTITLE4=O troco
TTITLE5=Triste, alegre
TTITLE6=Sete mares
TTITLE7=Eu quero só você
TTITLE8=Cor de ouro
TTITLE9=Chega mais pra cá
TTITLE10=Três palavras
TTITLE11=Montaria - Põe no 12
TTITLE12=Tá se achando
TTITLE13=Refém
TTITLE14=Montaria - Seu astral
TTITLE15=Sou foda
TTITLE16=Efeitos
TTITLE17=Montaria - Vendendo beijo
TTITLE18=E daí
TTITLE19=Amo noite e dia
TTITLE20=Inventor dos amores
TTITLE21=Montaria - Põe no 12
TTITLE22=Seu astral
EXTD=Ano 2011 - M. P. A.
EXTT0=
EXTT1=
EXTT2=
EXTT3=
EXTT4=
EXTT5=
EXTT6=
EXTT7=
EXTT8=
EXTT9=
EXTT10=
EXTT11=
EXTT12=
EXTT13=
EXTT14=
EXTT15=
EXTT16=
EXTT17=
EXTT18=
EXTT19=
EXTT20=
EXTT21=
EXTT22=
PLAYORDER=
